<svg xmlns="http://www.w3.org/2000/svg" viewBox="0 0 200 200" fill="none" opacity="0.1">
  <!-- Center -->
  <circle cx="100" cy="100" r="12" fill="#c18d52" fill-opacity="0.3"/>
  <circle cx="100" cy="100" r="6" fill="#c18d52" fill-opacity="0.5"/>
  <!-- Petals layer 1 (inner) -->
  <path d="M100 88 C105 70, 115 60, 100 42 C85 60, 95 70, 100 88Z" fill="#5abf76" fill-opacity="0.3"/>
  <path d="M100 88 C105 70, 115 60, 100 42 C85 60, 95 70, 100 88Z" fill="#5abf76" fill-opacity="0.3" transform="rotate(45 100 100)"/>
  <path d="M100 88 C105 70, 115 60, 100 42 C85 60, 95 70, 100 88Z" fill="#5abf76" fill-opacity="0.3" transform="rotate(90 100 100)"/>
  <path d="M100 88 C105 70, 115 60, 100 42 C85 60, 95 70, 100 88Z" fill="#5abf76" fill-opacity="0.3" transform="rotate(135 100 100)"/>
  <path d="M100 88 C105 70, 115 60, 100 42 C85 60, 95 70, 100 88Z" fill="#5abf76" fill-opacity="0.3" transform="rotate(180 100 100)"/>
  <path d="M100 88 C105 70, 115 60, 100 42 C85 60, 95 70, 100 88Z" fill="#5abf76" fill-opacity="0.3" transform="rotate(225 100 100)"/>
  <path d="M100 88 C105 70, 115 60, 100 42 C85 60, 95 70, 100 88Z" fill="#5abf76" fill-opacity="0.3" transform="rotate(270 100 100)"/>
  <path d="M100 88 C105 70, 115 60, 100 42 C85 60, 95 70, 100 88Z" fill="#5abf76" fill-opacity="0.3" transform="rotate(315 100 100)"/>
  <!-- Petals layer 2 (outer) -->
  <path d="M100 78 C108 50, 122 35, 100 10 C78 35, 92 50, 100 78Z" fill="#c18d52" fill-opacity="0.2" transform="rotate(22.5 100 100)"/>
  <path d="M100 78 C108 50, 122 35, 100 10 C78 35, 92 50, 100 78Z" fill="#c18d52" fill-opacity="0.2" transform="rotate(67.5 100 100)"/>
  <path d="M100 78 C108 50, 122 35, 100 10 C78 35, 92 50, 100 78Z" fill="#c18d52" fill-opacity="0.2" transform="rotate(112.5 100 100)"/>
  <path d="M100 78 C108 50, 122 35, 100 10 C78 35, 92 50, 100 78Z" fill="#c18d52" fill-opacity="0.2" transform="rotate(157.5 100 100)"/>
  <path d="M100 78 C108 50, 122 35, 100 10 C78 35, 92 50, 100 78Z" fill="#c18d52" fill-opacity="0.2" transform="rotate(202.5 100 100)"/>
  <path d="M100 78 C108 50, 122 35, 100 10 C78 35, 92 50, 100 78Z" fill="#c18d52" fill-opacity="0.2" transform="rotate(247.5 100 100)"/>
  <path d="M100 78 C108 50, 122 35, 100 10 C78 35, 92 50, 100 78Z" fill="#c18d52" fill-opacity="0.2" transform="rotate(292.5 100 100)"/>
  <path d="M100 78 C108 50, 122 35, 100 10 C78 35, 92 50, 100 78Z" fill="#c18d52" fill-opacity="0.2" transform="rotate(337.5 100 100)"/>
</svg>
