<svg xmlns="http://www.w3.org/2000/svg" viewBox="0 0 400 400" fill="none" stroke="#c18d52" stroke-width="0.5" opacity="0.12">
  <!-- Outer rings -->
  <circle cx="200" cy="200" r="195"/>
  <circle cx="200" cy="200" r="175"/>
  <circle cx="200" cy="200" r="155"/>
  <circle cx="200" cy="200" r="130"/>
  <circle cx="200" cy="200" r="100"/>
  <circle cx="200" cy="200" r="70"/>
  <circle cx="200" cy="200" r="40"/>
  <circle cx="200" cy="200" r="15" fill="#c18d52" fill-opacity="0.08"/>
  <!-- Radial lines -->
  <line x1="200" y1="5" x2="200" y2="395"/>
  <line x1="5" y1="200" x2="395" y2="200"/>
  <line x1="62" y1="62" x2="338" y2="338"/>
  <line x1="338" y1="62" x2="62" y2="338"/>
  <line x1="200" y1="5" x2="131" y2="395" stroke-dasharray="4,8"/>
  <line x1="200" y1="5" x2="269" y2="395" stroke-dasharray="4,8"/>
  <line x1="5" y1="200" x2="395" y2="131" stroke-dasharray="4,8"/>
  <line x1="5" y1="200" x2="395" y2="269" stroke-dasharray="4,8"/>
  <!-- Petals outer ring -->
  <ellipse cx="200" cy="45" rx="18" ry="40" transform="rotate(0 200 200)"/>
  <ellipse cx="200" cy="45" rx="18" ry="40" transform="rotate(30 200 200)"/>
  <ellipse cx="200" cy="45" rx="18" ry="40" transform="rotate(60 200 200)"/>
  <ellipse cx="200" cy="45" rx="18" ry="40" transform="rotate(90 200 200)"/>
  <ellipse cx="200" cy="45" rx="18" ry="40" transform="rotate(120 200 200)"/>
  <ellipse cx="200" cy="45" rx="18" ry="40" transform="rotate(150 200 200)"/>
  <ellipse cx="200" cy="45" rx="18" ry="40" transform="rotate(180 200 200)"/>
  <ellipse cx="200" cy="45" rx="18" ry="40" transform="rotate(210 200 200)"/>
  <ellipse cx="200" cy="45" rx="18" ry="40" transform="rotate(240 200 200)"/>
  <ellipse cx="200" cy="45" rx="18" ry="40" transform="rotate(270 200 200)"/>
  <ellipse cx="200" cy="45" rx="18" ry="40" transform="rotate(300 200 200)"/>
  <ellipse cx="200" cy="45" rx="18" ry="40" transform="rotate(330 200 200)"/>
  <!-- Petals inner ring -->
  <ellipse cx="200" cy="110" rx="12" ry="28" transform="rotate(0 200 200)"/>
  <ellipse cx="200" cy="110" rx="12" ry="28" transform="rotate(45 200 200)"/>
  <ellipse cx="200" cy="110" rx="12" ry="28" transform="rotate(90 200 200)"/>
  <ellipse cx="200" cy="110" rx="12" ry="28" transform="rotate(135 200 200)"/>
  <ellipse cx="200" cy="110" rx="12" ry="28" transform="rotate(180 200 200)"/>
  <ellipse cx="200" cy="110" rx="12" ry="28" transform="rotate(225 200 200)"/>
  <ellipse cx="200" cy="110" rx="12" ry="28" transform="rotate(270 200 200)"/>
  <ellipse cx="200" cy="110" rx="12" ry="28" transform="rotate(315 200 200)"/>
  <!-- Dots on middle ring -->
  <circle cx="200" cy="70" r="4" fill="#c18d52" fill-opacity="0.15" stroke="none"/>
  <circle cx="292" cy="200" r="4" fill="#c18d52" fill-opacity="0.15" stroke="none"/>
  <circle cx="200" cy="330" r="4" fill="#c18d52" fill-opacity="0.15" stroke="none"/>
  <circle cx="108" cy="200" r="4" fill="#c18d52" fill-opacity="0.15" stroke="none"/>
  <circle cx="265" cy="92" r="3" fill="#c18d52" fill-opacity="0.1" stroke="none"/>
  <circle cx="308" cy="265" r="3" fill="#c18d52" fill-opacity="0.1" stroke="none"/>
  <circle cx="135" cy="308" r="3" fill="#c18d52" fill-opacity="0.1" stroke="none"/>
  <circle cx="92" cy="135" r="3" fill="#c18d52" fill-opacity="0.1" stroke="none"/>
</svg>
