<svg xmlns="http://www.w3.org/2000/svg" width="330" height="348" viewBox="0 0 330 348">
<g>
<path d="M 176.88 316.13 C174.19,320.87 170.28,326.68 168.18,329.04 L 164.37 333.34 L 159.85 327.42 C151.55,316.55 141.37,297.35 96.31,207.50 C67.73,150.52 64.43,144.45 58.61,138.13 C55.02,134.24 44.78,129.00 40.75,129.00 C37.39,129.00 37.02,126.50 40.25,125.63 C41.49,125.30 57.69,125.02 76.25,125.01 C105.90,125.00 110.00,125.19 110.00,126.53 C110.00,128.22 109.31,128.54 103.64,129.49 C98.80,130.30 95.00,134.20 95.00,138.36 C95.00,140.28 104.23,161.10 119.64,193.96 C151.54,261.98 164.05,287.35 165.15,286.25 C165.63,285.77 179.67,257.28 196.36,222.94 C213.04,188.60 228.55,156.82 230.82,152.32 C235.43,143.19 236.80,137.36 235.08,134.14 C233.62,131.43 228.94,129.00 225.16,129.00 C222.42,129.00 220.37,126.96 221.74,125.60 C222.52,124.81 285.82,124.85 288.75,125.63 C292.38,126.60 291.35,128.69 286.90,129.40 C279.00,130.66 271.55,136.32 265.06,145.96 C261.78,150.84 242.31,188.49 195.50,280.50 C187.94,295.35 179.56,311.38 176.88,316.13 Z" fill="rgb(79,53,32)"/>
<path d="M 166.90 273.85 C165.53,277.77 164.48,277.82 162.53,274.05 C161.21,271.51 161.00,263.34 161.00,215.11 C161.00,180.56 160.63,158.89 160.04,158.53 C159.52,158.20 159.31,157.35 159.59,156.63 C159.87,155.91 159.40,154.74 158.55,154.04 C156.47,152.31 156.60,150.67 159.00,148.50 C161.31,146.41 161.58,143.18 159.67,140.56 C158.49,138.95 157.90,138.88 154.65,139.95 C143.77,143.54 132.59,134.23 134.37,123.07 C134.70,121.02 136.86,115.33 139.17,110.42 C143.51,101.18 144.57,94.36 142.71,87.65 C141.61,83.73 143.84,84.57 146.49,89.08 C149.34,93.94 149.01,102.57 145.64,111.37 C142.13,120.52 142.13,126.29 145.65,129.55 C148.20,131.91 152.11,132.66 155.37,131.41 C157.76,130.50 158.76,125.93 160.94,106.00 C162.05,95.82 163.23,85.14 163.55,82.25 C164.20,76.51 166.00,75.04 166.01,80.25 C166.01,82.04 167.13,93.62 168.50,106.00 C170.71,126.02 171.21,128.69 173.10,130.25 C176.13,132.75 181.19,132.49 183.81,129.70 C187.41,125.87 187.47,122.34 184.08,112.57 C180.22,101.43 179.95,93.84 183.25,88.97 C185.85,85.14 188.92,83.42 187.10,86.82 C186.49,87.95 186.00,91.55 186.00,94.82 C186.00,99.67 186.83,102.70 190.48,111.14 C195.76,123.33 196.29,128.77 192.73,134.10 C189.47,138.98 184.58,141.26 179.00,140.50 C176.52,140.17 173.63,139.81 172.56,139.70 C171.37,139.58 170.03,140.54 169.09,142.20 C167.65,144.72 167.69,145.05 169.78,147.26 C172.25,149.89 172.47,151.10 171.00,154.01 L 169.00 157.99 C168.37,159.24 168.00,180.42 168.00,215.34 C168.00,252.96 167.65,271.71 166.90,273.85 ZM 67.93 96.43 C62.40,105.47 60.25,107.97 61.52,103.88 C65.41,91.33 81.92,70.85 96.50,60.48 C115.85,46.71 135.02,40.39 160.50,39.37 C176.61,38.72 189.69,40.32 202.42,44.49 C229.58,53.40 252.29,72.79 264.92,97.83 C269.71,107.33 268.13,107.34 262.33,97.85 C248.19,74.72 226.16,56.60 202.30,48.51 C188.66,43.88 178.78,42.63 160.64,43.27 C137.20,44.08 121.72,48.93 102.22,61.56 C90.51,69.15 74.91,85.01 67.93,96.43 Z" fill="rgb(182,137,58)"/>
<path d="M 267.28 102.99 C270.95,111.08 273.78,119.33 272.15,117.41 C271.72,116.91 269.87,113.12 268.04,109.00 C265.40,103.03 262.13,97.25 258.35,91.77 C259.74,93.75 261.06,95.78 262.33,97.85 C266.76,105.10 268.72,106.81 267.28,102.99 ZM 67.49 97.14 C65.16,101.03 62.38,106.00 60.51,109.67 C54.87,120.73 55.73,115.75 61.64,103.15 C61.80,102.80 61.97,102.45 62.14,102.10 C61.91,102.71 61.70,103.30 61.52,103.88 C60.29,107.86 62.29,105.60 67.49,97.14 ZM 131.25 43.62 C133.47,42.98 135.72,42.39 138.00,41.87 C144.97,40.28 155.05,39.36 164.78,39.25 C163.38,39.27 161.95,39.31 160.50,39.37 C149.80,39.79 140.21,41.16 131.25,43.62 ZM 214.03 49.06 C227.06,54.96 238.59,63.32 248.17,73.79 C238.60,63.48 226.99,55.03 214.03,49.06 ZM 90.09 65.57 C84.35,70.57 78.63,76.69 73.78,82.90 C78.61,76.49 84.07,70.69 90.09,65.57 ZM 82.10 78.79 C88.65,71.98 95.99,65.60 102.22,61.56 C108.04,57.79 113.50,54.71 118.93,52.23 C123.93,49.94 128.90,48.15 134.10,46.79 C128.91,48.15 123.93,49.94 118.93,52.23 C113.50,54.72 108.04,57.80 102.22,61.57 C96.29,65.42 88.72,72.01 82.10,78.79 ZM 173.39 39.36 C177.47,39.52 181.27,39.85 184.50,40.35 C184.58,40.36 184.66,40.37 184.74,40.39 C181.09,39.87 177.32,39.53 173.39,39.36 ZM 225.17 59.66 C217.92,54.99 210.22,51.21 202.30,48.51 C210.20,51.19 217.90,54.96 225.17,59.66 Z" fill="rgb(171,153,126)"/>
<path d="M 0.00 174.00 L 0.00 0.00 L 165.00 0.00 L 330.00 0.00 L 330.00 174.00 L 330.00 348.00 L 165.00 348.00 L 0.00 348.00 L 0.00 174.00 ZM 176.88 316.13 C179.56,311.38 187.94,295.35 195.50,280.50 C242.31,188.49 261.78,150.84 265.06,145.96 C271.55,136.32 279.00,130.66 286.90,129.40 C291.35,128.69 292.38,126.60 288.75,125.63 C285.82,124.85 222.52,124.81 221.74,125.60 C220.37,126.96 222.42,129.00 225.16,129.00 C228.94,129.00 233.62,131.43 235.08,134.14 C236.80,137.36 235.43,143.19 230.82,152.32 C228.55,156.82 213.04,188.60 196.36,222.94 C179.67,257.28 165.63,285.77 165.15,286.25 C164.05,287.35 151.54,261.98 119.64,193.96 C104.23,161.10 95.00,140.28 95.00,138.36 C95.00,134.20 98.80,130.30 103.64,129.49 C109.31,128.54 110.00,128.22 110.00,126.53 C110.00,125.19 105.90,125.00 76.25,125.01 C57.69,125.02 41.49,125.30 40.25,125.63 C37.02,126.50 37.39,129.00 40.75,129.00 C44.78,129.00 55.02,134.24 58.61,138.13 C64.43,144.45 67.73,150.52 96.31,207.50 C141.37,297.35 151.55,316.55 159.85,327.42 L 164.37 333.34 L 168.18 329.04 C170.28,326.68 174.19,320.87 176.88,316.13 ZM 166.90 273.85 C167.65,271.71 168.00,252.96 168.00,215.34 C168.00,180.42 168.37,159.24 169.00,157.99 C169.55,156.89 170.45,155.11 171.00,154.01 C172.47,151.10 172.25,149.89 169.78,147.26 C167.69,145.05 167.65,144.72 169.09,142.20 C170.03,140.54 171.37,139.58 172.56,139.70 C173.63,139.81 176.52,140.17 179.00,140.50 C184.58,141.26 189.47,138.98 192.73,134.10 C196.29,128.77 195.76,123.33 190.48,111.14 C186.83,102.70 186.00,99.67 186.00,94.82 C186.00,91.55 186.49,87.95 187.10,86.82 C188.92,83.42 185.85,85.14 183.25,88.97 C179.95,93.84 180.22,101.43 184.08,112.57 C187.47,122.34 187.41,125.87 183.81,129.70 C181.19,132.49 176.13,132.75 173.10,130.25 C171.21,128.69 170.71,126.02 168.50,106.00 C167.13,93.62 166.01,82.04 166.01,80.25 C166.00,75.04 164.20,76.51 163.55,82.25 C163.23,85.14 162.05,95.82 160.94,106.00 C158.76,125.93 157.76,130.50 155.37,131.41 C152.11,132.66 148.20,131.91 145.65,129.55 C142.13,126.29 142.13,120.52 145.64,111.37 C149.01,102.57 149.34,93.94 146.49,89.08 C143.84,84.57 141.61,83.73 142.71,87.65 C144.57,94.36 143.51,101.18 139.17,110.42 C136.86,115.33 134.70,121.02 134.37,123.07 C132.59,134.23 143.77,143.54 154.65,139.95 C157.90,138.88 158.49,138.95 159.67,140.56 C161.58,143.18 161.31,146.41 159.00,148.50 C156.60,150.67 156.47,152.31 158.55,154.04 C159.40,154.74 159.87,155.91 159.59,156.63 C159.31,157.35 159.52,158.20 160.04,158.53 C160.63,158.89 161.00,180.56 161.00,215.11 C161.00,263.34 161.21,271.51 162.53,274.05 C164.48,277.82 165.53,277.77 166.90,273.85 ZM 69.58 93.77 C75.95,83.93 91.67,68.42 102.22,61.57 C121.68,48.94 137.19,44.08 160.64,43.27 C178.74,42.64 188.66,43.88 202.18,48.47 C230.39,58.04 255.83,81.42 268.04,109.00 C269.87,113.12 271.72,116.91 272.15,117.41 C273.89,119.45 270.56,109.93 266.54,101.38 C250.85,68.00 221.33,46.04 184.50,40.35 C171.78,38.38 150.16,39.09 138.00,41.87 C103.58,49.74 76.46,71.51 61.64,103.15 C55.73,115.75 54.87,120.73 60.51,109.67 C62.99,104.81 67.07,97.66 69.58,93.77 Z" fill="rgb(254,254,254)"/>
</g>
</svg>